<svg fill="#635BFF" role="img" viewBox="0 0 24 24" xmlns="http://www.w3.org/2000/svg"><title>Stripe</title><path d="M13.976 9.15c-2.172-.806-3.356-1.426-3.356-2.409 0-.831.683-1.305 1.901-1.305 2.227 0 4.515.858 6.090 1.631l.890-5.494C18.252.975 15.687 0 12.585 0 10.469 0 8.703.555 7.439 1.583 6.123 2.658 5.444 4.208 5.444 6.078c0 3.39 2.072 4.839 5.446 6.057 2.172.78 2.901 1.331 2.901 2.179 0 .825-.707 1.306-1.978 1.306-1.575 0-4.18-.78-5.886-1.768L5.04 19.601c1.46.831 4.157 1.673 6.952 1.673 2.235 0 4.098-.527 5.355-1.523 1.406-1.085 2.135-2.682 2.135-4.764 0-3.471-2.118-4.926-5.507-6.117v.28z"/></svg>
