<svg fill="currentColor"   version="1.1" id="Layer_1" xmlns="http://www.w3.org/2000/svg" xmlns:xlink="http://www.w3.org/1999/xlink" viewBox="0 0 560 560" xml:space="preserve"><g id="SVGRepo_bgCarrier" stroke-width="0"></g><g id="SVGRepo_tracerCarrier" stroke-linecap="round" stroke-linejoin="round"></g><g id="SVGRepo_iconCarrier"> <g> <g> <path d="M202.042,199.238c-6.938-2.103-14.268,1.82-16.371,8.759l-55.138,182.045c-2.102,6.938,1.82,14.268,8.759,16.37 c1.27,0.385,2.549,0.568,3.811,0.568c5.633,0,10.841-3.656,12.56-9.326l55.138-182.045 C212.901,208.668,208.981,201.338,202.042,199.238z"></path> </g> </g> <g> <g> <path d="M268.994,199.238c-6.93-2.103-14.268,1.82-16.37,8.759l-55.138,182.045c-2.102,6.938,1.82,14.268,8.759,16.37 c1.269,0.385,2.549,0.568,3.811,0.568c5.633,0,10.841-3.656,12.56-9.326l55.138-182.045 C279.857,208.668,275.935,201.338,268.994,199.238z"></path> </g> </g> <g> <g> <path d="M498.872,0H13.128C5.878,0,0,5.879,0,13.128v485.744C0,506.121,5.878,512,13.128,512h485.744 c7.249,0,13.128-5.879,13.128-13.128V13.128C512,5.879,506.121,0,498.872,0z M105.026,26.256h301.949v52.513H105.026V26.256z M26.256,26.256h52.513v52.513H26.256V26.256z M485.744,485.744H26.256V105.026h459.487V485.744z M485.744,78.769h-52.513V26.256 h52.513V78.769z"></path> </g> </g> <g> <g> <circle cx="93.867" cy="245.064" r="13.128"></circle> </g> </g> <g> <g> <circle cx="93.867" cy="360.592" r="13.128"></circle> </g> </g> <g> <g> <path d="M429.292,380.718H307.2c-7.249,0-13.128,5.879-13.128,13.128c0,7.249,5.879,13.128,13.128,13.128h122.092 c7.249,0,13.128-5.879,13.128-13.128C442.421,386.597,436.542,380.718,429.292,380.718z"></path> </g> </g> </g></svg>