<?xml version="1.0" encoding="UTF-8"?><svg id="b" xmlns="http://www.w3.org/2000/svg" viewBox="0 0 72 72"><g id="c"><circle cx="36" cy="36" r="36" fill="currentColor" stroke-width="0"/><path d="m41.21,5.84h0,0m-.13,0l1.45,7.61.16.85.82.28.27.09c.5.17.96.33,1.42.54.46.21.89.45,1.34.71l.25.14.76.43.75-.44,6.66-3.95,5.36,6.11-4.32,5.91-.53.73.39.81c.57,1.18,1.04,2.42,1.39,3.68l.24.87.88.19,7.13,1.56.02,8.13-7.59,1.46-.84.16-.29.81-.04.11c-.19.55-.38,1.06-.6,1.56-.23.52-.51,1.01-.8,1.54l-.04.07-.42.75.44.74,3.93,6.66-6.11,5.36-5.89-4.31-.73-.53-.81.39c-1.18.57-2.42,1.04-3.68,1.39l-.87.24-.19.88-1.57,7.15-8.13.02-1.47-7.62-.16-.84-.81-.29-.13-.05c-.54-.19-1.05-.37-1.54-.6-.49-.22-.97-.48-1.47-.76l-.12-.07-.75-.41-.74.43-6.69,3.94-5.36-6.11,4.32-5.91.53-.73-.39-.81c-.57-1.18-1.04-2.42-1.39-3.68l-.24-.87-.88-.19-7.13-1.56-.02-8.13,7.59-1.46.84-.16.29-.81.03-.08c.2-.57.39-1.1.63-1.62.23-.5.49-.98.77-1.49l.06-.1.42-.75-.44-.74-3.93-6.66,6.11-5.36,5.89,4.31.73.53.81-.39c1.18-.57,2.42-1.04,3.68-1.39l.87-.24.19-.88,1.57-7.15,8.13-.02m.13-1.5s-.02,0-.03,0l-8.32.02h-.01c-.64,0-1.2.44-1.34,1.07l-1.6,7.26c-1.35.38-2.67.88-3.93,1.49l-5.98-4.38c-.24-.17-.52-.26-.8-.26-.33,0-.66.12-.92.35l-6.25,5.49c-.49.43-.6,1.15-.28,1.72l3.99,6.76c-.31.56-.62,1.11-.89,1.7-.27.6-.48,1.2-.7,1.81l-7.71,1.48c-.64.13-1.1.69-1.1,1.34l.02,8.32c0,.65.44,1.21,1.07,1.35l7.24,1.59c.38,1.35.88,2.67,1.49,3.93l-4.38,6c-.37.53-.33,1.24.1,1.72l5.49,6.25c.27.3.65.46,1.03.46.23,0,.47-.06.69-.18l6.79-4c.56.31,1.11.62,1.7.89.59.27,1.19.47,1.79.69l1.49,7.73c.13.64.69,1.1,1.34,1.1l8.32-.02h.01c.64,0,1.2-.44,1.34-1.07l1.6-7.26c1.35-.38,2.67-.88,3.93-1.49l5.98,4.38c.24.17.52.26.8.26.33,0,.66-.12.92-.35l6.25-5.49c.49-.43.6-1.15.28-1.72l-3.99-6.76c.31-.57.62-1.12.89-1.72.27-.59.48-1.19.69-1.79l7.71-1.48c.64-.13,1.1-.69,1.1-1.34l-.02-8.32c0-.65-.44-1.21-1.07-1.35l-7.24-1.59c-.38-1.35-.88-2.67-1.49-3.93l4.38-6c.37-.53.33-1.24-.1-1.72l-5.49-6.25c-.27-.3-.65-.46-1.03-.46-.23,0-.47.06-.69.18l-6.77,4.01c-.56-.32-1.1-.64-1.71-.91-.61-.28-1.21-.47-1.82-.68l-1.47-7.73c-.09-.46-.41-.84-.84-1.02-.15-.06-.32-.09-.48-.09h0Z" fill="#fff" stroke-width="0"/></g></svg>