<svg version="1" xmlns="http://www.w3.org/2000/svg" viewBox="0 0 525 525"><path d="M245.85 3c-.07.15-3.07.45-6.6 0.75-7.27.6-7.35.6-24.38 3.15-1.2.22-2.78.52-3.38.68-.6.15-1.95.45-3 0.68-4.8 0.82-20.55 5.03-26.7 7.05-24.45 8.18-50.93 21.23-67.8 33.38-2.4 1.72-5.1 3.68-6 4.28-1 0.6-4.43 3.3-7.8 5.93-36.23 28.65-64.65 66.6-81.38 108.68-6.83 17.1-13.5 41.1-15.45 55.65-.22 1.88-.6 4.2-0.83 5.25-.38 2.1-.68 4.8-1.58 14.25-1.13 12.15-.6 44.18 0.9 53.33.15 0.98.45 3.45 0.75 5.55 0.68 5.7 1.2 8.7 1.88 12 0.38 1.65 0.83 3.98 1.05 5.25 0.68 3.68 0.98 4.95 2.7 11.63 1.58 6.38 5.48 19.28 6.68 22.13 0.38 0.83 1.88 4.88 3.45 9 3.68 9.75 13.65 30.08 18.83 38.33 2.25 3.53 4.05 6.75 4.05 7.13s-9.15 9.9-20.33 21.08l-20.25 20.4 39.23 39.23 39.3 39.3 20.25-20.25c11.18-11.18 20.78-20.33 21.3-20.33.53 0 2.7 1.13 4.8 2.55 2.1 1.35 6.53 3.98 9.83 5.7 3.3 1.8 6.38 3.45 6.75 3.75 0.68 0.45 14.1 6.68 20.25 9.38 15.9 6.98 45.53 15 64.13 17.33 1.05 0.15 3.08 0.38 4.5 0.6 14.03 2.18 49.05 2.1 63.75 0 20.18-2.93 35.18-6.45 51.75-12 43.58-14.78 84.08-41.63 112.73-74.93 2.48-2.93 4.73-5.4 5.03-5.63 0.23-0.23 2.63-3.23 5.33-6.75 31.2-40.5 49.65-87.45 54.45-138.38 1.13-11.63 0.45-52.2 0.9-54.38-.15-0.23-.45-2.25-0.68-4.5-.23-2.25-0.6-4.8-0.75-5.63-.15-0.83-0.83-4.58-1.58-8.25-5.33-28.8-16.8-58.73-32.33-84.83-2.25-3.75-4.05-7.05-4.05-7.43 0-0.3 8.33-8.93 18.6-19.13 10.2-10.2 19.28-19.43 20.18-20.4l1.65-1.8-39.23-39.23L445.73 0.6l-20.33 20.33C414.23 32.1 404.85 41.25 404.48 41.25s-3.15-1.58-6.23-3.53c-26.18-16.28-63.23-29.78-94.13-34.43-2.03-0.3-4.28-0.68-4.88-0.75-.6-.15-3.3-.45-6-0.68-2.7-0.3-5.78-0.68-6.75-0.9-2.03-0.38-40.2-1.05-40.65-0.68zm30.83 100.5c4.58 0.45 6.68 0.68 12.45 1.5 4.2 0.6 12.75 2.63 19.5 4.58 7.13 2.1 22.13 7.73 22.13 8.33 0 0.53-215.05 215.55-215.55 215.55-1.05 0-10.05-26.25-11.18-32.7-.23-1.2-0.9-5.03-1.58-8.55-2.55-14.1-2.93-38.55-0.83-49.65 0.23-0.9 0.83-4.58 1.5-8.18 0.6-3.53 2.25-10.35 3.75-15.15 10.35-34.35 28.2-60.15 58-83.93 4.88-3.83 17.4-11.4 25.8-15.6 8.85-4.35 27.23-11.18 33-11.7 1.8-0.3 7.43-1.43 8.1-1.58 0.23-0.08 2.1-0.38 4.13-0.75 2.1-0.3 4.43-0.68 5.25-0.83 0.83-0.15 4.58-0.53 8.25-0.75 3.75-0.3 6.83-0.53 6.9-0.68 0.38-0.23 15.38 0.23 20.4 0.68zm134.63 96.6c8.7 20.03 13.43 43.05 13.5 65.1 0 6.53-0.75 18.38-1.43 21.75-0.23 0.98-0.53 3.15-0.83 4.88-2.78 19.28-12.9 45.23-24.08 62.03-16.95 25.28-38 43.88-64.35 56.85-23.4 11.48-46.73 16.88-72.75 16.8-11.4-0.08-18.38-0.75-29.33-2.93-3.23-0.68-6.9-1.43-8.18-1.65-4.88-0.83-27.3-8.85-29.55-10.5-.3-0.23 214.58-215.4 215.18-215.4 0.23 0 1.05 1.43 1.8 3.15z"/></svg>