<?xml version="1.0" encoding="iso-8859-1"?>
<!-- Generator: Adobe Illustrator 17.1.0, SVG Export Plug-In . SVG Version: 6.00 Build 0)  -->
<!DOCTYPE svg PUBLIC "-//W3C//DTD SVG 1.1//EN" "http://www.w3.org/Graphics/SVG/1.1/DTD/svg11.dtd">
<svg version="1.1" id="Capa_1" xmlns="http://www.w3.org/2000/svg" xmlns:xlink="http://www.w3.org/1999/xlink" x="0px" y="0px"
	 viewBox="0 0 512.392 512.392" style="enable-background:new 0 0 512.392 512.392;" xml:space="preserve">
<g>
	<path d="M413.911,212.027c-2.347-4.497-8.637-12.041-24.388-12.041H256.381l27.812-175.913c1.502-9.914,0.616-16.375-2.79-20.335
		C279.331,1.327,276.458,0,273.314,0c-5.574,0-11.024,4.096-17.154,12.891c-0.026,0.038-0.052,0.075-0.077,0.113L102.509,241.604
		c-8.962,12.895-6.372,22.348-4.028,26.839c2.348,4.498,8.637,12.042,24.389,12.042h109.922l-32.688,207.835
		c-1.502,9.911-0.616,16.372,2.789,20.332c2.072,2.41,4.944,3.738,8.087,3.739c0.001,0,0.002,0,0.004,0
		c5.573,0,11.023-4.097,17.152-12.89l181.71-260.582C418.852,225.998,416.259,216.524,413.911,212.027z M396.72,229.771
		L216.264,488.555l33.787-214.826c0.363-2.31-0.302-4.664-1.822-6.441c-1.52-1.778-3.742-2.801-6.081-2.801H122.869
		c-5.185,0-9.095-1.32-10.204-3.446c-1.11-2.125,0.043-6.088,3.008-10.342c0.026-0.038,0.052-0.075,0.078-0.113L268.017,23.932
		l-28.902,182.804c-0.365,2.312,0.299,4.667,1.819,6.446c1.52,1.779,3.743,2.804,6.083,2.804h142.506
		c6.198,0,9.335,1.779,10.204,3.445C400.597,221.096,400.263,224.688,396.72,229.771z"/>
	<path d="M230.954,114.604c-4.356-0.743-8.486,2.193-9.225,6.549l-8.667,51.096c-0.739,4.356,2.193,8.486,6.549,9.225
		c0.453,0.077,0.903,0.114,1.348,0.114c3.831,0,7.215-2.76,7.877-6.664l8.667-51.096
		C238.242,119.473,235.31,115.343,230.954,114.604z"/>
	<path d="M358.962,241.608c-3.624-2.528-8.611-1.636-11.137,1.989l-10.672,15.312c-2.526,3.625-1.636,8.611,1.988,11.137
		c1.394,0.972,2.988,1.438,4.568,1.438c2.527,0,5.015-1.195,6.57-3.426l10.672-15.312
		C363.477,249.121,362.587,244.135,358.962,241.608z"/>
	<path d="M331.826,280.542c-3.625-2.527-8.611-1.636-11.137,1.989l-52.352,75.113c-2.526,3.625-1.636,8.611,1.989,11.137
		c1.394,0.972,2.988,1.438,4.567,1.438c2.528,0,5.015-1.195,6.57-3.426l52.352-75.113
		C336.342,288.055,335.451,283.068,331.826,280.542z"/>
</g>
<g>
</g>
<g>
</g>
<g>
</g>
<g>
</g>
<g>
</g>
<g>
</g>
<g>
</g>
<g>
</g>
<g>
</g>
<g>
</g>
<g>
</g>
<g>
</g>
<g>
</g>
<g>
</g>
<g>
</g>
</svg>
