
<?xml version="1.0" encoding="iso-8859-1"?>
<!-- Generator: Adobe Illustrator 19.0.0, SVG Export Plug-In . SVG Version: 6.00 Build 0)  -->
<svg version="1.1" id="Layer_1" xmlns="http://www.w3.org/2000/svg" xmlns:xlink="http://www.w3.org/1999/xlink" x="0px" y="0px"
	 viewBox="0 0 512 512" style="enable-background:new 0 0 512 512;" xml:space="preserve">
<g>
	<g>
		<path d="M464.373,136.958c-3.149,0-12.73,0-18.617-15.206c-3.459-8.936-3.752-18.252-3.754-18.328
			c-0.099-4.305-3.614-7.738-7.92-7.747c-0.005,0-0.012,0-0.017,0c-4.299,0-7.819,3.431-7.936,7.73
			c-0.002,0.093-0.295,9.409-3.755,18.345c-5.887,15.206-15.468,15.206-18.617,15.206c-4.385,0-7.939,3.555-7.939,7.939
			s3.555,7.939,7.939,7.939c3.149,0,12.73,0,18.617,15.206c3.459,8.936,3.752,18.252,3.755,18.345
			c0.109,4.298,3.619,7.721,7.92,7.73c0.005,0,0.012,0,0.017,0c4.299,0,7.819-3.431,7.936-7.73
			c0.002-0.093,0.295-9.409,3.754-18.345c5.887-15.206,15.468-15.206,18.617-15.206c4.385,0,7.939-3.555,7.939-7.939
			S468.758,136.958,464.373,136.958z M434.067,155.693c-2.253-4.033-5.064-7.752-8.532-10.796c3.468-3.044,6.279-6.763,8.532-10.796
			c2.252,4.033,5.063,7.752,8.532,10.796C439.13,147.94,436.318,151.66,434.067,155.693z"/>
	</g>
</g>
<g>
	<g>
		<path d="M121.713,90.935c-3.149,0-12.73,0-18.617-15.206c-3.459-8.936-3.752-18.252-3.754-18.328
			c-0.099-4.305-3.614-7.738-7.92-7.747c-0.005,0-0.012,0-0.017,0c-4.299,0-7.819,3.431-7.936,7.73
			c-0.002,0.093-0.295,9.409-3.755,18.345c-5.887,15.206-15.468,15.206-18.616,15.206c-4.385,0-7.939,3.555-7.939,7.939
			c0,4.385,3.554,7.939,7.938,7.939c3.149,0,12.73,0,18.616,15.206c3.459,8.936,3.752,18.252,3.755,18.345
			c0.109,4.298,3.619,7.721,7.92,7.73c0.005,0,0.012,0,0.017,0c4.299,0,7.819-3.431,7.936-7.73
			c0.002-0.093,0.295-9.407,3.755-18.345c5.887-15.206,15.468-15.206,18.617-15.206c4.385,0,7.939-3.555,7.939-7.939
			C129.653,94.489,126.098,90.935,121.713,90.935z M91.406,109.671c-2.253-4.033-5.063-7.752-8.532-10.796
			c3.468-3.044,6.279-6.764,8.532-10.796c2.253,4.033,5.063,7.752,8.532,10.796C96.469,101.918,93.658,105.638,91.406,109.671z"/>
	</g>
</g>
<g>
	<g>
		<path d="M126.279,405.187c-3.149,0-12.73,0-18.617-15.206c-3.459-8.936-3.752-18.252-3.754-18.328
			c-0.099-4.305-3.614-7.738-7.92-7.747c-0.005,0-0.012,0-0.017,0c-4.299,0-7.819,3.431-7.936,7.73
			c-0.002,0.093-0.295,9.409-3.755,18.345c-5.887,15.206-15.468,15.206-18.617,15.206c-4.385,0-7.939,3.555-7.939,7.939
			c0,4.385,3.555,7.939,7.939,7.939c3.149,0,12.73,0,18.617,15.206c3.459,8.936,3.752,18.252,3.755,18.345
			c0.109,4.298,3.619,7.721,7.92,7.73c0.005,0,0.012,0,0.017,0c4.299,0,7.819-3.431,7.936-7.73
			c0.002-0.093,0.295-9.409,3.754-18.345c5.887-15.206,15.468-15.206,18.617-15.206c4.385,0,7.939-3.555,7.939-7.939
			C134.218,408.742,130.664,405.187,126.279,405.187z M95.971,423.921c-2.253-4.033-5.064-7.752-8.532-10.796
			c3.468-3.044,6.279-6.763,8.532-10.796c2.252,4.033,5.063,7.752,8.532,10.796C101.034,416.169,98.224,419.889,95.971,423.921z"/>
	</g>
</g>
<g>
	<g>
		<path d="M471.254,273.687c-5.138,0-10.128,0.944-14.776,2.75c-1.875-26.754-18.131-49.591-41.058-60.857
			c-8.807-35.772-29.334-68.158-58.111-91.546c-30.24-24.576-68.395-38.11-107.435-38.11c-57.948,0-109.225,29.068-140.044,73.381
			c-1.456-0.105-2.909-0.164-4.352-0.164c-31.428,0-57.367,23.948-60.528,54.553c-3.366-1.081-6.918-1.642-10.556-1.642
			C15.43,212.053,0,227.483,0,246.448s15.43,34.395,34.395,34.395H81.15c11.89,82.467,83.016,146.044,168.723,146.044
			c55.32,0,106.938-26.731,138.952-71.708h82.428c22.468,0,40.746-18.279,40.746-40.746S493.721,273.687,471.254,273.687z
			 M84.57,214.651c-0.323,1.286-0.632,2.578-0.926,3.873c-3.314,14.596-4.688,29.616-4.107,44.575
			c0.024,0.622,0.039,1.244,0.07,1.866H34.395c-10.21,0-18.516-8.307-18.516-18.516s8.307-18.516,18.516-18.516
			c4.96,0,9.62,1.937,13.121,5.454c2.418,2.428,6.123,3.032,9.185,1.496c3.064-1.536,4.795-4.865,4.296-8.256
			c-0.326-2.207-0.491-4.439-0.491-6.633c0-22.896,17.197-41.849,39.353-44.623c-2.528,0.317-7.879,16.615-8.862,19.143
			C88.44,201.083,86.293,207.815,84.57,214.651z M249.874,411.009c-49.846,0-97.46-24.805-126.248-65.461
			c-33.734-47.641-37.391-112.569-9.182-163.646c25.05-45.357,72.377-75.921,124.097-79.687c3.771-0.274,7.552-0.411,11.333-0.411
			c35.404,0,70.001,12.272,97.419,34.556c23.404,19.02,40.793,44.598,49.894,73.06c-3.403-0.661-6.858-1.074-10.355-1.248
			c-0.038-0.002-0.076-0.006-0.115-0.008c-1.2-0.058-2.405-0.088-3.614-0.088c-34.651,0-64.326,24.481-71.747,57.417
			c-4.029-1.139-8.214-1.725-12.431-1.725c-25.203,0-45.708,20.504-45.708,45.708c0,3.15,0.321,6.228,0.93,9.2
			c4.269,20.808,22.724,36.508,44.777,36.508h69.895C339.572,390.392,296.148,411.009,249.874,411.009z M471.254,339.302h-86.568
			h-85.759c-16.448,0-29.829-13.381-29.829-29.829c0-16.448,13.381-29.829,29.829-29.829c5.196,0,10.319,1.365,14.816,3.944
			c2.366,1.358,5.263,1.406,7.672,0.127c2.409-1.279,3.994-3.705,4.196-6.424c2.221-29.91,27.476-53.339,57.494-53.339
			c0.99,0,1.975,0.025,2.953,0.075c0.075,0.004,0.15,0.013,0.225,0.017c30.33,1.656,54.497,26.848,54.497,57.584
			c0,2.815-0.212,5.675-0.629,8.502c-0.501,3.391,1.231,6.72,4.295,8.257s6.768,0.934,9.185-1.496
			c4.702-4.723,10.96-7.324,17.623-7.324c13.713,0,24.868,11.156,24.868,24.868C496.122,328.146,484.965,339.302,471.254,339.302z"
			/>
	</g>
</g>
<g>
</g>
<g>
</g>
<g>
</g>
<g>
</g>
<g>
</g>
<g>
</g>
<g>
</g>
<g>
</g>
<g>
</g>
<g>
</g>
<g>
</g>
<g>
</g>
<g>
</g>
<g>
</g>
<g>
</g>
</svg>
