<?xml version="1.0" encoding="iso-8859-1"?>
<!-- Generator: Adobe Illustrator 19.0.0, SVG Export Plug-In . SVG Version: 6.00 Build 0)  -->
<svg version="1.1" id="Layer_1" xmlns="http://www.w3.org/2000/svg" xmlns:xlink="http://www.w3.org/1999/xlink" x="0px" y="0px"
	 viewBox="0 0 512 512" style="enable-background:new 0 0 512 512;" xml:space="preserve">
<g transform="translate(1 1)">
	<g>
		<path d="M481.987,255h-13.653v-8.533c0-5.12-3.413-8.533-8.533-8.533h-42.667c-5.12,0-8.533,3.413-8.533,8.533V255H383V75.8
			c0-5.12-3.413-8.533-8.533-8.533h-25.6v-8.533c0-5.12-3.413-8.533-8.533-8.533h-42.667c-5.12,0-8.533,3.413-8.533,8.533v8.533
			h-68.267v-8.533c0-5.12-3.413-8.533-8.533-8.533h-42.667c-5.12,0-8.533,3.413-8.533,8.533v8.533h-25.6
			c-5.12,0-8.533,3.413-8.533,8.533V255h-25.6v-8.533c0-5.12-3.413-8.533-8.533-8.533H50.2c-5.12,0-8.533,3.413-8.533,8.533V255
			H28.013C12.653,255-1,269.507-1,286.573V434.2c0,16.213,9.387,25.6,25.6,25.6h25.6c5.12,0,8.533-3.413,8.533-8.533v-8.533h25.6
			v8.533c0,5.12,3.413,8.533,8.533,8.533h76.8c5.12,0,8.533-3.413,8.533-8.533v-8.533h25.6v8.533c0,5.12,3.413,8.533,8.533,8.533
			h25.6c7.052,0,12.808-1.779,17.067-5.12c4.258,3.341,10.015,5.12,17.067,5.12h25.6c5.12,0,8.533-3.413,8.533-8.533v-8.533h25.6
			v8.533c0,5.12,3.413,8.533,8.533,8.533h76.8c5.12,0,8.533-3.413,8.533-8.533v-8.533h25.6v8.533c0,5.12,3.413,8.533,8.533,8.533
			h22.187C498.2,459.8,511,447,511,430.787V286.573C511,269.507,497.347,255,481.987,255z M144.067,84.333h25.6
			c5.12,0,8.533-3.413,8.533-8.533v-8.533h25.6V75.8c0,5.12,3.413,8.533,8.533,8.533h85.333c5.12,0,8.533-3.413,8.533-8.533v-8.533
			h25.6V75.8c0,5.12,3.413,8.533,8.533,8.533h25.6V255H275.48h-37.547h-93.867V84.333z M237.933,442.733h-17.067V434.2
			c0-5.12-3.413-8.533-8.533-8.533h-42.667c-5.12,0-8.533,3.413-8.533,8.533v8.533H101.4V434.2c0-5.12-3.413-8.533-8.533-8.533H50.2
			c-5.12,0-8.533,3.413-8.533,8.533v8.533H24.6c-6.827,0-8.533-1.707-8.533-8.533v-25.6H50.2c5.12,0,8.533-3.413,8.533-8.533
			s-3.413-8.533-8.533-8.533H16.067v-17.067h17.067c5.12,0,8.533-3.413,8.533-8.533s-3.413-8.533-8.533-8.533H16.067v-70.827
			c0-7.68,5.973-14.507,11.947-14.507H50.2c5.12,0,8.533-3.413,8.533-8.533V255h25.6v8.533c0,5.12,3.413,8.533,8.533,8.533h42.667
			h102.4c6.827,0,8.533,1.707,8.533,8.533v153.6C246.467,441.027,244.76,442.733,237.933,442.733z M493.933,430.787
			c0,6.827-5.12,11.947-11.947,11.947h-13.653V434.2c0-5.12-3.413-8.533-8.533-8.533h-42.667c-5.12,0-8.533,3.413-8.533,8.533v8.533
			h-59.733V434.2c0-5.12-3.413-8.533-8.533-8.533h-42.667c-5.12,0-8.533,3.413-8.533,8.533v8.533h-17.067
			c-6.827,0-8.533-1.707-8.533-8.533V280.6c0-7.68,7.68-8.533,11.947-8.533h98.987h42.667c5.12,0,8.533-3.413,8.533-8.533V255h25.6
			v8.533c0,5.12,3.413,8.533,8.533,8.533h22.187c5.973,0,11.947,7.68,11.947,14.507V430.787z"/>
	</g>
</g>
<g>
</g>
<g>
</g>
<g>
</g>
<g>
</g>
<g>
</g>
<g>
</g>
<g>
</g>
<g>
</g>
<g>
</g>
<g>
</g>
<g>
</g>
<g>
</g>
<g>
</g>
<g>
</g>
<g>
</g>
</svg>
