<?xml version="1.0" encoding="iso-8859-1"?>
<!-- Generator: Adobe Illustrator 16.0.0, SVG Export Plug-In . SVG Version: 6.00 Build 0)  -->
<!DOCTYPE svg PUBLIC "-//W3C//DTD SVG 1.1//EN" "http://www.w3.org/Graphics/SVG/1.1/DTD/svg11.dtd">
<svg version="1.1" id="Capa_1" xmlns="http://www.w3.org/2000/svg" xmlns:xlink="http://www.w3.org/1999/xlink" x="0px" y="0px"
	 width="565.701px" height="565.701px" viewBox="0 0 565.701 565.701" style="enable-background:new 0 0 565.701 565.701;"
	 xml:space="preserve">
<g>
	<path d="M47.567,164.346c0-37.285,30.225-67.504,67.504-67.504c37.279,0,67.504,30.228,67.504,67.504
		c0,37.279-30.225,67.501-67.504,67.501C77.792,231.847,47.567,201.625,47.567,164.346z M450.637,231.847
		c37.273,0,67.501-30.222,67.501-67.501c0-37.285-30.228-67.504-67.501-67.504c-37.279,0-67.507,30.228-67.507,67.504
		C383.13,201.625,413.357,231.847,450.637,231.847z M565.701,308.258v70.072l-0.484-0.006l-4.521,2.294
		c-2.199,1.123-36.907,18.098-96.824,19.162c-30.057,40.631-98.231,69.079-177.377,69.079c-79.266,0-147.532-28.531-177.523-69.269
		c-13.134-0.531-27.26-1.844-42.327-4.196l-18.515-3.381c-13.716-2.79-28.059-6.378-43.113-11.077l-4.835-1.513L0,378.33v-70.072
		c0-40.024,27.405-73.695,64.41-83.469c13.293,12.401,31.076,20.059,50.655,20.059c19.579,0,37.356-7.658,50.655-20.059
		c15.439,4.079,29.093,12.425,39.874,23.555c24.639-6.777,52.03-10.592,80.895-10.592c26.581,0,51.927,3.215,75.014,9.014
		c10.568-10.362,23.738-18.087,38.468-21.977c13.299,12.401,31.073,20.059,50.655,20.059c19.576,0,37.355-7.658,50.655-20.059
		c28.773,7.602,51.672,29.675,60.461,57.929l3.6,17.928C565.577,303.151,565.701,305.692,565.701,308.258z M446.162,399.639
		c-13.601-0.485-28.254-1.797-43.946-4.244l-18.519-3.381c-13.713-2.802-28.059-6.384-43.119-11.089l-4.829-1.513l-0.184-1.088
		v-70.066c0-18.418,5.864-35.443,15.723-49.461c-20.108-4.407-41.942-6.851-64.787-6.851c-25.301,0-49.373,2.976-71.222,8.328
		c4.631,6.871,8.399,14.363,10.917,22.443l3.603,17.928c0.225,2.512,0.346,5.053,0.346,7.612v70.072l-0.485-0.006l-4.522,2.294
		c-2.222,1.123-37.418,18.358-98.154,19.186c29.912,32.557,90.166,54.87,159.517,54.87
		C355.952,454.674,416.283,432.284,446.162,399.639z"/>
</g>
<g>
</g>
<g>
</g>
<g>
</g>
<g>
</g>
<g>
</g>
<g>
</g>
<g>
</g>
<g>
</g>
<g>
</g>
<g>
</g>
<g>
</g>
<g>
</g>
<g>
</g>
<g>
</g>
<g>
</g>
</svg>
