<svg xmlns="http://www.w3.org/2000/svg" fill="none" viewBox="0 0 96 96" id="Grpc--Streamline-Svg-Logos" ><desc>Grpc Streamline Icon: https://streamlinehq.com</desc><path fill="#244b5a" d="M11.4052 61.9509c.6979.9285 1.6048 1.6794 2.6473 2.1918 1.1274.5584 2.3714.8408 3.6294.8238 1.0172.0266 2.0297-.1461 2.9805-.5084.7605-.2988 1.4394-.7734 1.9811-1.385.5084-.5959.8795-1.2963 1.0871-2.0515.2264-.8163.3384-1.66.333-2.507v-2.9454h-.0699c-.6593 1.045-1.6103 1.8739-2.7355 2.3844-1.0728.4671-2.2311.7059-3.4012.7013-1.1465.0086-2.2838-.2057-3.3485-.6311-1.0082-.4003-1.9306-.9894-2.7177-1.7358-.781-.7499-1.4014-1.6507-1.8235-2.6478-.44911-1.0526-.67592-2.1866-.6662-3.331-.00969-1.1411.20483-2.2729.63137-3.3313.40313-1.0013.99203-1.9174 1.73553-2.6999.7434-.7761 1.6387-1.3909 2.63-1.806 1.0608-.441 2.2001-.6617 3.3488-.6486.5231.003 1.045.0499 1.5602.14.5666.099 1.1197.2638 1.6481.4911 1.2545.5437 2.3389 1.4161 3.1386 2.525h.0699v-2.7354h2.3146v16.2705c-.0079.956-.1197 1.9083-.3333 2.8402-.2234 1.0076-.6664 1.9534-1.2973 2.7701-.7179.901-1.6366 1.6216-2.6826 2.1043-1.1457.5608-2.6419.8411-4.4886.8411-1.5001.0256-2.9902-.2485-4.383-.8063-1.3326-.5708-2.5279-1.4196-3.50622-2.4894l1.71802-1.8237Zm.4207-11.7116c-.0058.8357.1552 1.6641.4735 2.4368.3035.7415.7435 1.4195 1.2971 1.9986.5504.5741 1.2049 1.0382 1.9287 1.3678.754.3426 1.5738.5162 2.402.5083 1.6401.0059 3.2206-.6149 4.4182-1.7355.5881-.555 1.0488-1.2311 1.3502-1.9816.3247-.825.4741-1.7086.4384-2.5944.0059-.831-.1366-1.6564-.4209-2.4373-.2701-.7422-.6876-1.4221-1.2274-1.9987-.5548-.5845-1.223-1.0498-1.9636-1.3675-.82-.3485-1.7039-.5218-2.5949-.5086-.8282-.0076-1.648.166-2.402.5086-.7236.3299-1.378.7939-1.9287 1.3675-.5535.5794-.9935 1.2573-1.2974 1.9987-.3181.7729-.479 1.6014-.4732 2.4373Zm23.9844 8.4156h-2.5245V33.8282H40.93c2.5247 0 4.5175.5493 5.9786 1.6481 1.4608 1.099 2.1914 2.7588 2.1917 4.9793.0445 1.6118-.5403 3.1776-1.6305 4.3656-1.0872 1.1807-2.6593 1.8645-4.7163 2.0512l7.1534 11.7825h-3.086l-6.8024-11.5367h-4.208l-.0002 11.5367Zm0-13.851h4.4886c.9644.0203 1.9268-.0978 2.8577-.3508.6809-.182 1.3186-.4978 1.8761-.929.4497-.3619.7997-.8326 1.0167-1.3675.2134-.5415.3205-1.119.3157-1.701.0026-.5702-.1046-1.1356-.3157-1.6654-.2196-.5384-.5688-1.0143-1.0167-1.3852-.5521-.4398-1.1917-.7566-1.8761-.9293-.933-.2402-1.8945-.3522-2.8577-.333h-4.4886v8.6612Zm18.4441-10.9757h7.2238c2.5245 0 4.5173.5494 5.9783 1.6483 1.4608 1.0991 2.1914 2.7589 2.1918 4.9794 0 2.2212-.7306 3.8867-2.1918 4.9967-1.461 1.1106-3.4538 1.6658-5.9783 1.6656h-4.6988v11.5367h-2.525V33.8282Zm2.5252 10.9759h4.0677c.9644.0203 1.9268-.0978 2.8577-.3507.6808-.1821 1.3186-.498 1.8761-.9291.4497-.3619.7996-.8326 1.0167-1.3675.2135-.5414.3206-1.1189.3157-1.7009.0027-.5703-.1045-1.1357-.3157-1.6654-.2196-.5385-.5688-1.0143-1.0167-1.3853-.5521-.4396-1.1917-.7565-1.8761-.9293-.933-.2401-1.8945-.3522-2.8577-.3329h-4.0679l.0002 8.6611ZM95 54.7276c-.4443.6582-.9682 1.2589-1.56 1.7884-.6406.5755-1.3539 1.0647-2.1216 1.4549-.8196.4185-1.6842.7421-2.5771.9646-.9579.2378-1.9415.3555-2.9284.3505-1.7604.0165-3.5065-.3172-5.1368-.9816-3.1091-1.2564-5.5719-3.7256-6.8204-6.8379-.6681-1.66-1.0017-3.4357-.9816-5.225-.02-1.7892.3136-3.5649.9816-5.2249 1.2484-3.1122 3.7113-5.5813 6.8204-6.8374 1.6302-.6646 3.3764-.9984 5.1368-.9819 1.5867.0085 3.1574.3178 4.6288.9115 1.5694.628 2.9388 1.6704 3.9622 3.0158l-2.2088 1.6481c-.2968-.442-.6506-.843-1.0523-1.1923-.464-.4109-.976-.764-1.5249-1.0518-.5864-.3089-1.2035-.5557-1.8412-.7364-.6383-.1847-1.2994-.2791-1.9638-.2806-1.4729-.0242-2.9332.2751-4.2779.8766-1.2199.5535-2.3122 1.3533-3.2083 2.3492-.8868.9987-1.5716 2.1599-2.0166 3.4192-.9349 2.6431-.9349 5.5268 0 8.1699.4449 1.2593 1.1297 2.4204 2.0166 3.4189.8958.9962 1.9882 1.7962 3.2083 2.3494 1.3446.602 2.8049.9014 4.2779.8769.6527.0003 1.3041-.0584 1.9462-.1753.6533-.1202 1.2893-.3204 1.8937-.5961.637-.2922 1.2277-.6763 1.7533-1.14.5904-.5274 1.1038-1.1352 1.5251-1.8054L95 54.7276Z"></path><path fill="url(#a)" d="m7.53809 41.9566-6.53851-6.49 6.49007-6.5386 6.53855 6.4901-6.49011 6.5385Z"></path><path fill="url(#b)" d="m25.3301 39.1863-3.8352-3.8067 3.8068-3.8352 3.8351 3.8068-3.8067 3.8351Z"></path><path fill="#244b5a" d="M7.77596 31.5034 3.8457 35.4631l3.95949 3.9303 3.34981-.0125-3.51277-3.4845 17.34547-.0643-1.5202 1.5305 1.6749-.0061 1.9653-1.9799-1.9799-1.965-1.6749.0061 1.5317 1.5195-17.34553.0643 3.48643-3.5105-3.34954.0124Z"></path><defs><linearGradient id="a" x1="-646.313" x2="656.545" y1="-607.051" y2="-611.894" gradientUnits="userSpaceOnUse"><stop stop-color="#72c9c9"></stop><stop offset="1" stop-color="#02b0ad"></stop></linearGradient><linearGradient id="b" x1="-358.188" x2="406.007" y1="-341.49" y2="-344.331" gradientUnits="userSpaceOnUse"><stop stop-color="#03b6b4"></stop><stop offset="1" stop-color="#74cbca"></stop></linearGradient></defs></svg>