<svg fill="currentColor" viewBox="0 -2 28 28" xmlns="http://www.w3.org/2000/svg"><g id="SVGRepo_bgCarrier" stroke-width="0"></g><g id="SVGRepo_tracerCarrier" stroke-linecap="round" stroke-linejoin="round"></g><g id="SVGRepo_iconCarrier"><path d="m27.994 14.729c-.012.267-.365.566-1.091.945-1.495.778-9.236 3.967-10.883 4.821-.589.419-1.324.67-2.116.67-.641 0-1.243-.164-1.768-.452l.019.01c-1.304-.622-9.539-3.95-11.023-4.659-.741-.35-1.119-.653-1.132-.933v2.83c0 .282.39.583 1.132.933 1.484.709 9.722 4.037 11.023 4.659.504.277 1.105.44 1.744.44.795 0 1.531-.252 2.132-.681l-.011.008c1.647-.859 9.388-4.041 10.883-4.821.76-.396 1.096-.7 1.096-.982s0-2.791 0-2.791z"></path><path d="m27.992 10.115c-.013.267-.365.565-1.09.944-1.495.778-9.236 3.967-10.883 4.821-.59.421-1.326.672-2.121.672-.639 0-1.24-.163-1.763-.449l.019.01c-1.304-.627-9.539-3.955-11.023-4.664-.741-.35-1.119-.653-1.132-.933v2.83c0 .282.39.583 1.132.933 1.484.709 9.721 4.037 11.023 4.659.506.278 1.108.442 1.749.442.793 0 1.527-.251 2.128-.677l-.011.008c1.647-.859 9.388-4.043 10.883-4.821.76-.397 1.096-.7 1.096-.984s0-2.791 0-2.791z"></path><path d="m27.992 5.329c.014-.285-.358-.534-1.107-.81-1.451-.533-9.152-3.596-10.624-4.136-.528-.242-1.144-.383-1.794-.383-.734 0-1.426.18-2.035.498l.024-.012c-1.731.622-9.924 3.835-11.381 4.405-.729.287-1.086.552-1.073.834v2.83c0 .282.39.583 1.132.933 1.484.709 9.721 4.038 11.023 4.66.504.277 1.105.439 1.744.439.795 0 1.531-.252 2.133-.68l-.011.008c1.647-.859 9.388-4.043 10.883-4.821.76-.397 1.096-.7 1.096-.984s0-2.791 0-2.791h-.009zm-17.967 2.684 6.488-.996-1.96 2.874zm14.351-2.588-4.253 1.68-3.835-1.523 4.246-1.679 3.838 1.517zm-11.265-2.785-.628-1.157 1.958.765 1.846-.604-.499 1.196 1.881.7-2.426.252-.543 1.311-.879-1.457-2.8-.252 2.091-.754zm-4.827 1.632c1.916 0 3.467.602 3.467 1.344s-1.559 1.344-3.467 1.344-3.474-.603-3.474-1.344 1.553-1.344 3.474-1.344z"></path></g></svg>