<?xml version="1.0" encoding="UTF-8"?><svg id="b" xmlns="http://www.w3.org/2000/svg" viewBox="0 0 72 72"><g id="c"><circle cx="36" cy="36" r="36" fill="#333" stroke-width="0"/><path d="m48.38,23.39l7.48,7.48v15.98h-6.69v-13.15l-5.55-5.55,4.76-4.76Zm-7.14,33.55h-11.45l-7.48-7.48,4.65-4.65-11.56-11.56v-6.57h6.69v3.74l4.87,4.87,7.14-7.14-4.87-4.87h-13.83l-6.69-6.69h23.23l11.56,11.67-2.38,2.38,4.53,4.53v9.41l-9.29-9.29-2.38,2.38,9.29,9.29h-9.41l-4.65-4.65-2.38,2.38,5.55,5.55h23.35l6.69,6.57-21.19.11h0Z" fill="#fff" stroke-width="0"/></g></svg>