<svg xmlns="http://www.w3.org/2000/svg" viewBox="58 54 1133 1133" role="img" aria-labelledby="t">
<title id="t">Reading cat logo</title>
<style>
  path { fill: #000; }
  @media (prefers-color-scheme: dark) { path { fill: #fff; } }
</style>
<path fill-rule="evenodd" d="M 445 55 c -174.6 0.5 -188.1 0.7 -196.5 2.3 -20.7 4.1 -35.3 8.5 -51 15.3 -66.7 28.8 -114.7 86.9 -130.3 157.9 l -2.6 12 -0.4 371 c -0.2 261 0 373.8 0.8 380.5 4.6 40.7 21.8 79.6 49.8 113 36.8 43.9 89.5 72.4 144.2 77.9 5.9 0.6 148.2 1.1 372.5 1.3 345.2 0.3 363.5 0.2 373 -1.5 32.1 -5.7 58.7 -16.4 85.5 -34.2 53.2 -35.3 89.1 -93.6 96 -156 0.8 -7.2 1 -114.8 0.8 -381.5 l -0.3 -371.5 -2.2 -10.4 c -7.7 -35.9 -18.8 -61.1 -38.9 -88.2 -9.5 -12.8 -30.7 -34.1 -43.4 -43.5 -34.4 -25.6 -73.7 -40.9 -113.5 -44.3 -12.5 -1.1 -182.7 -1.1 -543.5 -0.1 z m -26.3 152.5 c 30.7 11.6 86.7 67 122.9 121.6 l 8.4 12.6 9.7 -2.3 c 13.3 -3.3 30.3 -6.1 44.8 -7.5 15.1 -1.5 51.8 -0.6 67.5 1.6 10.1 1.4 37.1 6.8 40.5 8.1 0.7 0.3 3.6 -3.4 7.1 -8.8 18.3 -29.1 37.9 -53.5 64.7 -80.7 31.8 -32.2 53.3 -47 68.5 -47.1 10.5 -0 16.2 4.1 22.3 16.1 11.6 23 17.3 80.8 15 153.1 l -1 33.7 6 14.7 c 3.2 8 7.8 20.4 10 27.5 2.3 7.1 4.5 12.9 4.9 12.9 0.4 -0 5 -1.5 10.1 -3.4 29.8 -10.8 61.4 -20.5 89.6 -27.5 20 -5.1 21.5 -5.1 25.9 -0.7 2.9 2.9 3.4 4.1 3.4 7.9 0 3.4 -0.6 5.3 -2.5 7.5 -2.9 3.5 -4.7 4.3 -18 7.7 -23.9 6.3 -83.7 25.2 -103 32.5 -2 0.8 -2 1.2 -1 10.6 0.5 5.3 1.5 9.9 2 10 0.6 0.2 16.8 2.4 36 4.9 69.6 9.1 85.9 11.5 89.4 13.3 10.1 5.1 7.6 20.4 -3.6 21.9 -3.7 0.5 -26.4 -2.1 -63.3 -7.2 -18.4 -2.6 -56.7 -7.5 -58 -7.5 -0.4 -0 -1 0.8 -1.2 1.8 -0.4 1.4 -2.9 2.3 -11.4 4.1 -50.2 10.3 -130.1 33.1 -167.9 47.8 -35.1 13.6 -69.4 33.4 -96.1 55.6 -6.6 5.4 -10.1 7.7 -10.9 7.1 -0.7 -0.5 -5.8 -4.6 -11.5 -9.2 -25 -20.2 -55.1 -37.5 -88.5 -50.7 -39.3 -15.6 -111.9 -36.5 -170.7 -49.1 -15.1 -3.2 -17.8 -4.1 -17.8 -5.6 0 -2.4 0.4 -2.4 -35 2.2 -16.8 2.2 -42.6 5.7 -57.5 7.6 -14.8 2 -28.8 3.3 -31 3 -5.9 -0.7 -9.5 -5.1 -9.5 -11.5 0 -5.7 2.4 -9.4 7.3 -11 3.2 -1.1 62.2 -9.4 103.2 -14.6 11.6 -1.5 21.3 -3 21.7 -3.3 0.3 -0.4 0.9 -5 1.3 -10.3 l 0.7 -9.6 -30.3 -10.1 c -24.9 -8.3 -73.2 -22.8 -85.2 -25.6 -1.5 -0.4 -4.1 -1.9 -5.8 -3.4 -2.6 -2.3 -3.3 -3.8 -3.7 -8 -0.4 -4.7 -0.2 -5.4 2.5 -8.1 1.7 -1.6 4.3 -3.3 5.8 -3.7 5.8 -1.4 46 9.3 88.5 23.7 16.2 5.5 30.3 10.3 31.2 10.6 1 0.3 2 -0.1 2.2 -0.8 4.6 -14.9 9 -27.2 14 -39.4 l 6.2 -15 -1 -32.5 c -1.5 -48.5 0.9 -93.8 6.4 -122.4 5 -25.8 12 -40.4 21.9 -45.6 5.4 -2.9 15.3 -2.6 23.8 0.5 z m -67.6 364.4 c 81.9 16.7 161.5 40.4 199.3 59.3 11.7 5.9 29.8 16.7 34.1 20.3 l 3 2.6 -9.5 -0.4 c -8.7 -0.4 -15.5 -2.1 -78.5 -19.7 -37.9 -10.6 -76 -21.2 -84.5 -23.5 -56.6 -15.7 -123.4 -34.6 -123.8 -35 -0.6 -0.6 13.5 -2.8 37.3 -5.8 6.4 -0.8 8.6 -0.6 22.6 2.2 z m 589.5 -0.4 c 10.4 1.4 20.4 2.8 22.3 3.2 3.4 0.6 -40.5 13.5 -170.9 50.2 -20.1 5.7 -42.6 12 -50 14.1 -50.1 14.2 -53.5 15 -60.8 15 -4 -0 -7.2 -0.3 -7.2 -0.8 0 -2.1 28.9 -19.2 45.8 -27.1 36.1 -16.7 110.6 -38.3 193.2 -55.9 6.6 -1.4 7.1 -1.4 27.6 1.3 z m -672.2 33.1 c 13.2 3.6 31.1 8.5 39.6 10.9 8.5 2.4 35.3 9.8 59.5 16.4 52.5 14.3 120.5 33 167.5 46.1 22.9 6.3 23.5 6.6 24.9 9.6 0.8 1.8 1.1 45.6 1.1 162.2 0 175.7 0.4 164.2 -5.9 164.2 -1.5 -0 -12.4 -2.7 -24.2 -6.1 -20.6 -5.8 -66.3 -18.6 -188.9 -52.7 -31.6 -8.8 -63.1 -17.5 -70 -19.2 -13 -3.3 -16.3 -4.8 -17.9 -7.8 -1.1 -2.1 -7.2 -104.7 -15.6 -262.7 -1.3 -25.9 -2.7 -50.5 -3.1 -54.7 -0.6 -7.3 -0.5 -7.8 2 -10.2 1.4 -1.5 3.5 -2.6 4.7 -2.6 1.2 -0 13 3 26.3 6.6 z m 748.1 -5.6 c 3.9 1.5 4.4 4.2 3.4 19.5 -0.8 12.4 -4.2 70.9 -15 256 -2.6 46 -3.3 53.3 -4.8 55.5 -1.9 2.6 1.3 1.6 -78.6 23.9 -9.9 2.8 -34.2 9.6 -54 15.1 -19.8 5.6 -50.4 14.1 -68 19 -17.6 4.9 -45.7 12.8 -62.5 17.5 -16.7 4.7 -31.7 8.5 -33.2 8.5 -6.3 -0 -5.9 11.3 -5.6 -165.1 0.2 -88.2 0.7 -161.2 1.2 -162.1 0.9 -1.9 4.6 -3.1 32.6 -10.7 10.2 -2.8 25.9 -7.1 35 -9.6 9.1 -2.5 32 -8.9 51 -14.1 47.4 -13.1 124.2 -34.5 168.5 -46.9 14.3 -4 26.3 -7.4 26.7 -7.4 0.4 -0.1 1.8 0.3 3.3 0.9 z m -351.7 95.3 c 0.9 0.7 1.2 35.1 1.2 166.7 l 0 165.9 -2.2 1.3 c -1.8 1 -10.2 1.3 -35.1 1.3 -31.4 -0 -32.9 -0.1 -34.3 -1.9 -2.1 -2.9 -2.1 -330.7 0 -332.8 1.1 -1.2 7.6 -1.4 35.2 -1.4 18.7 0.1 34.5 0.5 35.2 0.9 z"/>
</svg>
