<svg height="256" preserveAspectRatio="xMidYMid" viewBox="0 0 256 256" width="256" xmlns="http://www.w3.org/2000/svg"><path d="m53.8412698 161.320635c0 14.831746-11.9873015 26.819048-26.8190476 26.819048-14.831746 0-26.8190476-11.987302-26.8190476-26.819048s11.9873016-26.819048 26.8190476-26.819048h26.8190476zm13.4095239 0c0-14.831746 11.9873015-26.819048 26.8190476-26.819048 14.8317457 0 26.8190477 11.987302 26.8190477 26.819048v67.047619c0 14.831746-11.987302 26.819048-26.8190477 26.819048-14.8317461 0-26.8190476-11.987302-26.8190476-26.819048z" fill="#e01e5a"/><path d="m94.0698413 53.6380952c-14.8317461 0-26.8190476-11.9873015-26.8190476-26.8190476 0-14.831746 11.9873015-26.8190476 26.8190476-26.8190476 14.8317457 0 26.8190477 11.9873016 26.8190477 26.8190476v26.8190476zm0 13.6126985c14.8317457 0 26.8190477 11.9873015 26.8190477 26.8190476 0 14.8317457-11.987302 26.8190477-26.8190477 26.8190477h-67.2507937c-14.831746 0-26.8190476-11.987302-26.8190476-26.8190477 0-14.8317461 11.9873016-26.8190476 26.8190476-26.8190476z" fill="#36c5f0"/><path d="m201.549206 94.0698413c0-14.8317461 11.987302-26.8190476 26.819048-26.8190476s26.819048 11.9873015 26.819048 26.8190476c0 14.8317457-11.987302 26.8190477-26.819048 26.8190477h-26.819048zm-13.409523 0c0 14.8317457-11.987302 26.8190477-26.819048 26.8190477s-26.819048-11.987302-26.819048-26.8190477v-67.2507937c0-14.831746 11.987302-26.8190476 26.819048-26.8190476s26.819048 11.9873016 26.819048 26.8190476z" fill="#2eb67d"/><path d="m161.320635 201.549206c14.831746 0 26.819048 11.987302 26.819048 26.819048s-11.987302 26.819048-26.819048 26.819048-26.819048-11.987302-26.819048-26.819048v-26.819048zm0-13.409523c-14.831746 0-26.819048-11.987302-26.819048-26.819048s11.987302-26.819048 26.819048-26.819048h67.250794c14.831746 0 26.819047 11.987302 26.819047 26.819048s-11.987301 26.819048-26.819047 26.819048z" fill="#ecb22e"/></svg>