<?xml version="1.0" encoding="utf-8"?>
<!-- Generator: Adobe Illustrator 26.0.2, SVG Export Plug-In . SVG Version: 6.00 Build 0)  -->
<svg version="1.1" id="Layer_1" xmlns="http://www.w3.org/2000/svg" xmlns:xlink="http://www.w3.org/1999/xlink" x="0px" y="0px"
	 viewBox="0 0 624.3 125.8" style="enable-background:new 0 0 624.3 125.8;" xml:space="preserve">
<style type="text/css">
	.st0{fill:#000;}
</style>
<g>
	<g>
		<path class="st0" d="M279.4,85.5V23.7c0-1.6,1.3-2.9,2.9-2.9h5.7c1.6,0,2.9,1.3,2.9,2.9v61.8c0,1.6-1.3,2.9-2.9,2.9h-5.7
			C280.7,88.4,279.4,87.1,279.4,85.5z"/>
		<path class="st0" d="M282.3,0h5.7c1.6,0,2.9,1.3,2.9,2.9v5.7c0,1.6-1.3,2.9-2.9,2.9h-5.7c-1.6,0-2.9-1.3-2.9-2.9V2.9
			C279.4,1.3,280.7,0,282.3,0z"/>
	</g>
	<path class="st0" d="M515,77h5.7c1.6,0,2.9,1.3,2.9,2.9v5.7c0,1.6-1.3,2.9-2.9,2.9H515c-1.6,0-2.9-1.3-2.9-2.9v-5.7
		C512.1,78.2,513.4,77,515,77z"/>
	<path class="st0" d="M266,20.9l-5.8,0c-1.8,0.1-3.3,1.2-3.8,2.9l-14.3,50.7c-0.4,2.1-2.5,3.4-4.5,3c-1.5-0.3-2.7-1.5-3-3.1
		l-14.3-50.6c-0.5-1.7-2-2.9-3.8-2.9l-5.8,0c-1.2-0.1-2.3,0.8-2.4,2.1c0,0.3,0,0.6,0.1,0.9l15.1,53.8h0c2.2,8.1,10.6,12.9,18.7,10.7
		c5.3-1.4,9.5-5.7,10.8-11l15-53.5c0.4-1.2-0.2-2.4-1.4-2.8C266.6,20.9,266.3,20.8,266,20.9z"/>
	<g>
		<path class="st0" d="M539.6,1.1L539.6,1.1c1.6,0,2.9,1.3,2.9,2.9v5.7c0,1.6-1.3,2.9-2.9,2.9l0,0c-1.6,0-2.9-1.3-2.9-2.9V3.9
			C536.8,2.3,538.1,1.1,539.6,1.1z"/>
		<path class="st0" d="M539.6,21.9L539.6,21.9c1.6,0,2.9,1.3,2.9,2.9v61.8c0,1.6-1.3,2.9-2.9,2.9l0,0c-1.6,0-2.9-1.3-2.9-2.9V24.7
			C536.8,23.1,538.1,21.9,539.6,21.9z"/>
	</g>
	<path class="st0" d="M607.3,26.6c6.2,0,11.3,5.1,11.3,11.3V71c0,6.2-5.1,11.3-11.3,11.3h-34c-6.2,0-11.3-5.1-11.3-11.3V37.9
		c0-6.2,5.1-11.3,11.3-11.3H607.3 M607.3,21h-34c-9.4,0-17,7.6-17,17V71c0,9.4,7.6,17,17,17h34c9.4,0,17-7.6,17-17V37.9
		C624.3,28.6,616.7,21,607.3,21C607.3,21,607.3,21,607.3,21L607.3,21z"/>
	<path class="st0" d="M79.7,21H21.2c-9.4,0-17,7.6-17,17c0,0,0,0,0,0v25.5c0,4.1,1.5,8,4.1,11.1c-4.8,5.2-5.5,13-1.7,19
		C2.5,96.8,0,101.7,0,107v1.8c0,9.4,7.6,17,17,17h46.5c9.4,0,17-7.6,17-17V107c0-9.4-7.6-17-17-17H20.2v0c-2.7,0-4.8-2.2-4.7-4.9
		c0-2.6,2.2-4.7,4.8-4.7h0.2c0.3,0,38.9,0,38.9,0c9.4,0,17-7.6,17-17c0,0,0,0,0,0l0.1-29c0-1.3,1-2.3,2.3-2.3h1.1
		c1.5,0,2.8-1.3,2.8-2.8v-5.6C82.5,22.2,81.2,21,79.7,21z M69.3,107v1.8c0,3.2-2.6,5.8-5.8,5.8H17c-3.2,0-5.8-2.6-5.8-5.8V107
		c0-3.2,2.6-5.8,5.8-5.8h46.5C66.7,101.2,69.3,103.8,69.3,107z M65,63.5c0,3.2-2.6,5.8-5.8,5.8h-38c-3.2,0-5.8-2.6-5.8-5.8V37.9
		c0-3.2,2.6-5.8,5.8-5.8h38c3.2,0,5.8,2.6,5.8,5.8L65,63.5z"/>
	<path class="st0" d="M123.6,21l-14.3,0c-9.4,0-17,7.6-17,17v47.6c0,1.5,1.2,2.8,2.8,2.8c0,0,0,0,0,0h5.6c1.5,0,2.8-1.2,2.8-2.8
		c0,0,0,0,0,0l0-47.6c0-3.2,2.6-5.8,5.8-5.8h14.3c1.5,0,2.8-1.2,2.8-2.8c0,0,0,0,0,0v-5.6C126.4,22.2,125.1,21,123.6,21z"/>
	<path class="st0" d="M338.4,32.2c1.6,0,2.9-1.3,2.9-2.9c0,0,0,0,0,0v-5.7c0-1.6-1.3-2.9-2.9-2.9l0,0h-15.8v-18
		c0-1.5-1.2-2.8-2.8-2.8c0,0,0,0,0,0h-5.6c-1.5,0-2.8,1.2-2.8,2.8c0,0,0,0,0,0v18h-5.7c-1.6,0-2.9,1.3-2.9,2.9c0,0,0,0,0,0v5.7
		c0,1.6,1.3,2.9,2.9,2.9c0,0,0,0,0,0h5.7v38.9c0,9.4,7.6,17,17,17l10,0c1.5,0,2.8-1.2,2.8-2.8l0,0v-5.6c0-1.5-1.2-2.8-2.8-2.8l0,0
		h-10c-3.2,0-5.8-2.6-5.8-5.8l0-38.9L338.4,32.2z"/>
	<path class="st0" d="M182.5,21l-43.5,0c-1.5,0-2.8,1.2-2.8,2.8c0,0,0,0,0,0v5.6c0,1.5,1.2,2.8,2.8,2.8h43.5c3.2,0,5.8,2.6,5.8,5.8
		v7.4c-1.9-0.7-3.8-1-5.8-1h-33.4c-9.4,0-17,7.6-17,17v9.9c0,9.4,7.6,17,17,17l0,0h33.4c9.4,0,17-7.6,17-17V37.9
		C199.4,28.6,191.8,21,182.5,21z M182.5,77h-33.4c-3.2,0-5.8-2.6-5.8-5.8v-9.9c0-3.2,2.6-5.8,5.8-5.8h33.4c3.1,0,5.7,2.5,5.8,5.6
		v2.7c0,0,0,0.1,0,0.1v7.4C188.3,74.4,185.7,77,182.5,77L182.5,77z"/>
	<path class="st0" d="M406.7,62.4c9.4,0,17-7.6,17-17v-7.5c0-9.4-7.6-17-17-17h-37.4c-9.4,0-17,7.6-17,17v0v4.8h0c0,0.1,0,0.1,0,0.2
		v28.2c0,9.4,7.6,17,17,17l0,0l47.5,0c1.5,0,2.8-1.2,2.8-2.8l0,0v-5.6c0-1.5-1.2-2.8-2.8-2.8l0,0h-47.5c-3.2,0-5.8-2.6-5.8-5.8v-8.7
		L406.7,62.4z M363.5,42.7v-4.8c0-3.2,2.6-5.8,5.8-5.8h37.4c3.2,0,5.8,2.6,5.8,5.8v7.5c0,3.2-2.6,5.8-5.8,5.8h-43.2v-8.3
		C363.5,42.8,363.5,42.7,363.5,42.7L363.5,42.7z"/>
	<path class="st0" d="M489,62.4c9.4,0,17-7.6,17-17c0,0,0,0,0,0v-7.5c0-9.4-7.6-17-17-17l0,0h-37.4c-9.4,0-17,7.6-17,17v0v4.8h0
		c0,0.1,0,0.1,0,0.2v28.2c0,9.4,7.6,17,17,17l0,0l47.5,0c1.5,0,2.8-1.2,2.8-2.8l0,0v-5.6c0-1.5-1.2-2.8-2.8-2.8l0,0h-47.5
		c-3.2,0-5.8-2.6-5.8-5.8v-8.7L489,62.4z M445.8,42.7v-4.8c0-3.2,2.6-5.8,5.8-5.8H489c3.2,0,5.8,2.6,5.8,5.8v7.5
		c0,3.2-2.6,5.8-5.8,5.8h-43.2v-8.3C445.8,42.8,445.8,42.7,445.8,42.7L445.8,42.7z"/>
</g>
</svg>
