<?xml version="1.0" encoding="UTF-8"?><svg id="b" xmlns="http://www.w3.org/2000/svg" viewBox="0 0 72 72"><g id="c"><circle cx="36" cy="36" r="36" fill="#333" stroke-width="0"/><path d="m10.56,29.14v5.19h-4.77v-5.19h-2.26v12.4h2.26v-5.02h4.77v5.02h2.26v-12.4h-2.26Zm9.51,8.39c0,1.03-.84,1.87-1.87,1.87s-1.87-.84-1.87-1.87v-5.31h-2.15v5.31c0,2.22,1.8,4.02,4.02,4.02,2.22,0,4.01-1.8,4.02-4.02v-5.31h-2.14v5.31Zm15.91-4.76c0-1.09.72-1.43,1.51-1.43.64,0,1.48.48,2.02,1.07l1.41-1.66c-.7-.95-2.13-1.61-3.29-1.61-2.33,0-4.01,1.36-4.01,3.63,0,4.2,5.13,2.86,5.13,5.21,0,.72-.7,1.36-1.51,1.36-1.27,0-1.68-.62-2.27-1.28l-1.56,1.62c1,1.23,2.23,1.85,3.7,1.85,2.21,0,3.99-1.38,3.99-3.54,0-4.66-5.13-3.21-5.13-5.23m31.74,6.79c-1.27,0-1.63-.55-1.63-1.39v-3.72h1.97v-1.89h-1.97v-2.49l-2.18.98v7.58c0,1.94,1.34,2.92,3.17,2.92.29,0,.58-.02.86-.07l.53-1.96c-.24.02-.51.03-.76.03m-39.47-7.27c-1.06,0-1.81.31-2.52,1.01v-4.08h-2.15v7.56c0,2.83,2.05,4.77,4.35,4.77,2.55,0,4.8-1.97,4.8-4.63s-2.07-4.63-4.47-4.63m-.01,7.1c-1.35,0-2.44-1.09-2.44-2.44s1.09-2.44,2.44-2.44,2.44,1.09,2.44,2.44-1.09,2.44-2.44,2.44h0m23.37-2.58c0-2.66-2.24-4.63-4.8-4.63-2.3,0-4.35,1.94-4.35,4.77v7.57h2.15v-4.09c.72.7,1.46,1.01,2.52,1.01,2.4,0,4.47-2.01,4.47-4.63m-2.04-.03c0,1.35-1.09,2.44-2.44,2.44s-2.44-1.09-2.44-2.44h0c0-1.35,1.09-2.44,2.44-2.44s2.44,1.09,2.44,2.44" fill="#fff" stroke-width="0"/><path d="m58.55,32.07v-2.16c.58-.27.96-.86.96-1.5v-.05c0-.92-.75-1.66-1.66-1.66h-.05c-.92,0-1.66.75-1.66,1.66h0v.05c0,.64.38,1.23.96,1.5v2.16c-.82.13-1.59.47-2.24.99l-5.93-4.62c.04-.15.06-.31.07-.47,0-1.04-.84-1.88-1.87-1.88-1.04,0-1.88.84-1.88,1.87s.84,1.88,1.87,1.88c0,0,0,0,0,0,.32,0,.64-.09.92-.25l5.84,4.54c-1.07,1.62-1.04,3.73.07,5.32l-1.77,1.78c-.14-.05-.29-.07-.44-.07-.85,0-1.54.69-1.54,1.54,0,.85.69,1.54,1.54,1.54.85,0,1.54-.69,1.54-1.54,0-.15-.03-.3-.07-.44l1.76-1.76c2.07,1.6,5.04,1.21,6.64-.86,1.6-2.07,1.21-5.04-.86-6.64-.64-.49-1.38-.81-2.18-.93m-.73,7.11c-1.34.04-2.46-1.02-2.5-2.36-.04-1.34,1.02-2.46,2.36-2.5.04,0,.09,0,.13,0,1.34.05,2.39,1.17,2.34,2.51-.04,1.27-1.07,2.3-2.34,2.34" fill="#fff" stroke-width="0"/></g></svg>