<?xml version="1.0" encoding="UTF-8"?><svg id="b" xmlns="http://www.w3.org/2000/svg" viewBox="0 0 72 72"><g id="c"><circle cx="36" cy="36" r="36" fill="#333" stroke-width="0"/><path d="m13.3,57.05l.84-1.94c.9.67,2.1,1.02,3.28,1.02.87,0,1.42-.34,1.42-.85-.01-1.42-5.23-.31-5.27-3.88-.01-1.81,1.6-3.21,3.88-3.21,1.36,0,2.72.34,3.68,1.1l-.78,1.97c-.89-.56-1.99-.97-3.04-.97-.71,0-1.19.34-1.19.77.01,1.4,5.27.63,5.33,4.05,0,1.86-1.57,3.16-3.83,3.16-1.65,0-3.17-.39-4.32-1.22" fill="#fff" stroke-width="0"/><path d="m45.29,54.42c-.42.72-1.2,1.22-2.1,1.22-1.33,0-2.41-1.07-2.41-2.41s1.07-2.41,2.41-2.41c.9,0,1.68.5,2.1,1.22l2.3-1.27c-.86-1.54-2.51-2.58-4.4-2.58-2.78,0-5.04,2.26-5.04,5.04s2.26,5.04,5.04,5.04c1.9,0,3.53-1.04,4.4-2.58l-2.3-1.27h0Z" fill="#fff" stroke-width="0"/><rect x="22.62" y="44" width="2.88" height="14.08" fill="#fff" stroke-width="0"/><polygon points="48.72 44 48.72 58.09 51.6 58.09 51.6 53.87 55.02 58.09 58.7 58.09 54.36 53.07 58.38 48.39 54.85 48.39 51.6 52.28 51.6 44 48.72 44" fill="#fff" stroke-width="0"/><path d="m34.05,54.44c-.42.69-1.27,1.2-2.25,1.2-1.33,0-2.41-1.07-2.41-2.41s1.07-2.41,2.41-2.41c.97,0,1.83.54,2.25,1.24v2.38Zm0-6.05v1.14c-.47-.8-1.64-1.35-2.86-1.35-2.53,0-4.52,2.23-4.52,5.03s1.99,5.06,4.52,5.06c1.22,0,2.4-.55,2.86-1.35v1.14h2.88v-9.68h-2.88Z" fill="#fff" stroke-width="0"/><path d="m26.71,28.85c0,1.87-1.51,3.37-3.37,3.37s-3.38-1.51-3.38-3.37,1.51-3.37,3.37-3.37h3.37v3.37h.01Z" fill="#fff" stroke-width="0"/><path d="m28.39,28.85c0-1.87,1.51-3.37,3.37-3.37s3.37,1.51,3.37,3.37v8.43c0,1.87-1.51,3.37-3.37,3.37s-3.37-1.5-3.37-3.37v-8.43Z" fill="#fff" stroke-width="0"/><path d="m31.77,15.29c-1.87,0-3.37-1.51-3.37-3.37s1.51-3.37,3.37-3.37,3.37,1.51,3.37,3.37v3.37h-3.37Z" fill="#fff" stroke-width="0"/><path d="m31.77,17.01c1.87,0,3.37,1.51,3.37,3.37s-1.51,3.37-3.37,3.37h-8.47c-1.87,0-3.37-1.51-3.37-3.37s1.51-3.37,3.37-3.37h8.47Z" fill="#fff" stroke-width="0"/><path d="m45.29,20.38c0-1.87,1.51-3.37,3.37-3.37s3.37,1.51,3.37,3.37-1.51,3.37-3.37,3.37h-3.37v-3.37Z" fill="#fff" stroke-width="0"/><path d="m43.61,20.38c0,1.87-1.51,3.37-3.37,3.37s-3.37-1.51-3.37-3.37v-8.46c0-1.87,1.51-3.37,3.37-3.37s3.37,1.5,3.37,3.37v8.46Z" fill="#fff" stroke-width="0"/><path d="m40.23,33.91c1.87,0,3.37,1.51,3.37,3.37s-1.51,3.37-3.37,3.37-3.37-1.51-3.37-3.37v-3.37h3.37Z" fill="#fff" stroke-width="0"/><path d="m40.23,32.22c-1.87,0-3.37-1.51-3.37-3.37s1.51-3.37,3.37-3.37h8.47c1.87,0,3.37,1.51,3.37,3.37s-1.51,3.37-3.37,3.37h-8.47Z" fill="#fff" stroke-width="0"/></g></svg>