<?xml version="1.0" encoding="UTF-8"?><svg id="b" xmlns="http://www.w3.org/2000/svg" viewBox="0 0 72 72"><g id="c"><circle cx="36" cy="36" r="36" fill="#333" stroke-width="0"/><path id="d" d="m54.46,49.5l-10.87-6.28c-1.53-.88-3.48-.36-4.36,1.17-.34.6-.48,1.26-.41,1.91v12.27c0,1.75,1.43,3.18,3.18,3.18s3.18-1.43,3.18-3.18v-7.06l6.09,3.52c1.53.88,3.48.36,4.36-1.17.88-1.53.36-3.48-1.17-4.36" fill="#fff" stroke-width="0"/><path id="e" d="m27.43,36.04c.02-1.13-.58-2.19-1.56-2.76l-10.87-6.27c-.47-.27-1.01-.42-1.55-.42-1.12,0-2.15.6-2.71,1.56-.86,1.49-.35,3.4,1.14,4.26l6.26,3.61-6.26,3.62c-.72.42-1.24,1.09-1.45,1.89-.22.81-.11,1.65.31,2.37.56.96,1.59,1.56,2.7,1.56.55,0,1.09-.14,1.56-.42l10.87-6.27c.97-.56,1.57-1.61,1.56-2.73" fill="#fff" stroke-width="0"/><path id="f" d="m17.47,22.56l10.87,6.27c1.27.74,2.83.5,3.83-.48.63-.58,1.03-1.42,1.03-2.34v-12.58c0-1.76-1.43-3.18-3.18-3.18s-3.18,1.43-3.18,3.18v7.16l-6.17-3.56c-1.53-.88-3.48-.36-4.36,1.17-.88,1.53-.36,3.48,1.17,4.36" fill="#fff" stroke-width="0"/><path id="g" d="m41.91,36.55c0,.24-.14.57-.31.75l-4.31,4.31c-.17.17-.51.31-.75.31h-1.1c-.24,0-.58-.14-.75-.31l-4.31-4.31c-.17-.18-.31-.51-.31-.75v-1.1c0-.25.14-.58.31-.75l4.31-4.31c.17-.17.51-.31.75-.31h1.1c.24,0,.58.14.75.31l4.31,4.31c.17.17.31.5.31.75v1.1Zm-3.84-.53v-.05c0-.18-.1-.42-.23-.55l-1.27-1.27c-.12-.13-.37-.23-.55-.23h-.05c-.18,0-.42.1-.55.23l-1.27,1.27c-.12.12-.23.37-.23.55v.05c0,.18.1.43.23.55l1.27,1.27c.13.12.37.23.55.23h.05c.18,0,.43-.1.55-.23l1.27-1.27c.12-.12.23-.37.23-.55Z" fill="#fff" stroke-width="0"/><path id="h" d="m43.59,28.84l10.87-6.27c1.53-.88,2.05-2.84,1.17-4.36-.88-1.53-2.84-2.05-4.36-1.17l-6.09,3.52v-7.11c0-1.76-1.43-3.18-3.18-3.18s-3.18,1.43-3.18,3.18v12.33c-.06.64.06,1.3.41,1.91.88,1.53,2.84,2.05,4.36,1.17" fill="#fff" stroke-width="0"/><path id="i" d="m30.51,42.85c-.72-.14-1.49-.02-2.18.37l-10.87,6.28c-1.53.88-2.05,2.83-1.17,4.36.88,1.53,2.84,2.05,4.36,1.17l6.17-3.56v7.1c0,1.75,1.43,3.18,3.18,3.18s3.18-1.43,3.18-3.18v-12.58c0-1.59-1.16-2.9-2.68-3.14" fill="#fff" stroke-width="0"/><path id="j" d="m61.25,28.12c-.88-1.53-2.84-2.05-4.36-1.17l-10.87,6.27c-1.04.6-1.61,1.7-1.6,2.82,0,1.12.56,2.2,1.6,2.79l10.87,6.28c1.53.88,3.48.36,4.36-1.17.88-1.53.36-3.48-1.17-4.36l-6.15-3.55,6.15-3.55c1.53-.88,2.05-2.83,1.17-4.36" fill="#fff" stroke-width="0"/></g></svg>