<?xml version="1.0" encoding="UTF-8"?><svg id="b" xmlns="http://www.w3.org/2000/svg" viewBox="0 0 72 72"><g id="c"><circle cx="36" cy="36" r="36" fill="#333" stroke-width="0"/><path d="m35.43,19.36v17.66h-14.63l14.63-17.66Zm0-6.34c0,4.04-3.27,7.31-7.31,7.31s-7.31-3.27-7.31-7.31h14.63Zm2.41,24c0-4.04,3.27-7.31,7.31-7.31s7.31,3.27,7.31,7.31h-14.63Zm0-6.34V13.03h14.63l-14.63,17.66h0Zm8.18,21.45c.75.02,1.48-.26,2.03-.78l1,1.08c-.66.68-1.58,1.19-3.01,1.19-2.45,0-4.04-1.63-4.04-3.83-.04-2.07,1.61-3.79,3.68-3.83.04,0,.09,0,.13,0,2.43,0,3.82,1.85,3.69,4.42h-5.76c.2,1.07.95,1.75,2.26,1.75m1.75-2.97c-.16-1-.75-1.73-1.94-1.73-1.11,0-1.88.63-2.08,1.73h4.02,0Zm-39.54,2.89l4.43-4.5h-4.32v-1.41h6.38v1.44l-4.43,4.5h4.49v1.41h-6.55v-1.44h0Zm11.52.08c.75.02,1.48-.26,2.03-.78l1,1.08c-.66.68-1.58,1.19-3.01,1.19-2.45,0-4.04-1.63-4.04-3.83-.04-2.07,1.61-3.79,3.68-3.83.04,0,.09,0,.13,0,2.43,0,3.82,1.85,3.69,4.42h-5.75c.2,1.07.95,1.75,2.26,1.75m1.75-2.97c-.16-1-.75-1.73-1.94-1.73-1.11,0-1.88.63-2.08,1.73h4.02,0Zm11.3.63c0-2.35,1.76-3.82,3.69-3.82.94-.01,1.84.39,2.45,1.1v-4.34h1.56v10.73h-1.56v-1.01c-.6.74-1.51,1.17-2.47,1.16-1.88,0-3.68-1.49-3.68-3.82m6.23-.02c-.03-1.29-1.11-2.31-2.4-2.27-1.29.03-2.31,1.11-2.27,2.4.03,1.26,1.07,2.27,2.33,2.27,1.35,0,2.33-1.07,2.33-2.4m11.5,2.13l1.42-.74c.38.68,1.11,1.09,1.89,1.07.89,0,1.35-.45,1.35-.97,0-.59-.86-.72-1.79-.91-1.25-.27-2.56-.68-2.56-2.19,0-1.16,1.11-2.24,2.85-2.22,1.37,0,2.39.54,2.97,1.42l-1.31.72c-.37-.55-.99-.86-1.65-.84-.84,0-1.27.41-1.27.88,0,.53.68.68,1.74.91,1.21.27,2.58.66,2.58,2.19,0,1.01-.89,2.38-2.98,2.37-1.53,0-2.61-.62-3.23-1.71m10.47-1.7l-1.24,1.35v1.91h-1.56v-10.73h1.56v7.03l3.32-3.65h1.91l-2.88,3.15,2.95,4.21h-1.77l-2.29-3.26h0Zm-32.93-4.23c-1.86,0-3.42,1.2-3.42,3.21v4.3h1.6v-4.1c0-1.2.69-1.93,1.88-1.93s1.77.72,1.77,1.93v4.1h1.59v-4.3c0-2-1.56-3.21-3.42-3.21" fill="#fff" stroke-width="0"/></g></svg>